<?xml version="1.0" encoding="UTF-8" standalone="no"?>
<!-- Created with Inkscape (http://www.inkscape.org/) -->

<svg
   width="512"
   height="512"
   viewBox="0 0 135.46667 135.46667"
   version="1.1"
   id="svg1"
   sodipodi:docname="icon.svg"
   inkscape:version="1.3.2 (091e20e, 2023-11-25, custom)"
   xmlns:inkscape="http://www.inkscape.org/namespaces/inkscape"
   xmlns:sodipodi="http://sodipodi.sourceforge.net/DTD/sodipodi-0.dtd"
   xmlns="http://www.w3.org/2000/svg"
   xmlns:svg="http://www.w3.org/2000/svg">
  <sodipodi:namedview
     id="namedview1"
     pagecolor="#ffffff"
     bordercolor="#000000"
     borderopacity="0.25"
     inkscape:showpageshadow="2"
     inkscape:pageopacity="0.0"
     inkscape:pagecheckerboard="0"
     inkscape:deskcolor="#d1d1d1"
     inkscape:document-units="mm"
     inkscape:zoom="1.1200123"
     inkscape:cx="-99.998902"
     inkscape:cy="385.71005"
     inkscape:window-width="3840"
     inkscape:window-height="2036"
     inkscape:window-x="-12"
     inkscape:window-y="-12"
     inkscape:window-maximized="1"
     inkscape:current-layer="layer1" />
  <defs
     id="defs1" />
  <g
     inkscape:label="Layer 1"
     inkscape:groupmode="layer"
     id="layer1"
     transform="translate(-36.664468,-33.208455)">
    <path
       sodipodi:type="star"
       style="fill:none;fill-opacity:1;stroke:#c2d11f;stroke-width:13.5881;stroke-dasharray:none;stroke-opacity:1;paint-order:markers stroke fill"
       id="path12"
       inkscape:flatsided="true"
       sodipodi:sides="3"
       sodipodi:cx="253.1667"
       sodipodi:cy="258.84875"
       sodipodi:r1="73.531281"
       sodipodi:r2="36.765636"
       sodipodi:arg1="-0.52127604"
       sodipodi:arg2="0.52592151"
       inkscape:rounded="-0.01"
       inkscape:randomized="0"
       d="m 316.93188,222.23113 c -0.63423,-1.10445 -65.20957,110.14575 -63.93597,110.14871 1.27359,0.003 -62.78424,-111.54602 -63.4236,-110.44454 -0.63936,1.10149 127.99381,1.40027 127.35957,0.29583 z"
       transform="matrix(-0.80539299,0.36311052,-0.34209465,-0.85487066,389.96905,234.60129)"
       inkscape:transform-center-x="-14.326249"
       inkscape:transform-center-y="0.29567068" />
    <path
       style="display:inline;fill:#6ec007;fill-opacity:1;stroke:#00610e;stroke-width:5.64824;stroke-dasharray:none;stroke-opacity:1"
       d="m 77.378858,153.31519 c -17.998244,-7.50445 -31.10625,-23.9585 -33.92861,-42.5895 -1.816002,-11.987896 1.098824,-25.205375 7.74213,-35.107447 7.288525,-10.863809 18.025567,-18.10627 31.274004,-21.0954 16.374165,-3.694266 32.747578,0.140688 46.304468,10.845674 11.69059,9.231217 19.34486,23.432658 20.53874,38.106793 0.52298,6.42769 -0.87558,15.85704 -3.24131,21.85423 -1.73289,4.3927 -4.77855,9.74668 -7.3871,12.98571 -4.74389,5.89045 -12.19894,11.52556 -19.4816,14.72576 -5.04313,2.21607 -13.68847,4.11223 -19.506723,4.27828 -5.957103,0.16993 -17.097525,-1.82906 -22.313999,-4.0041 z"
       id="path3-86" />
    <ellipse
       style="fill:#f9f9f9;fill-opacity:1;stroke:none;stroke-width:2.9039;stroke-dasharray:none;stroke-opacity:1"
       id="path9-26"
       cx="101.45566"
       cy="52.847931"
       rx="12.765857"
       ry="12.389555"
       transform="matrix(0.52537689,0.85086963,0.97536575,-0.22059385,0,0)" />
    <ellipse
       style="fill:#f9f9f9;fill-opacity:1;stroke:none;stroke-width:1.89478;stroke-dasharray:none;stroke-opacity:1"
       id="path9-54-9"
       transform="matrix(-0.14301066,0.98972115,0.85041338,0.52611509,0,0)"
       ry="8.791131"
       rx="7.4795351"
       cy="152.37576"
       cx="13.188205" />
    <path
       style="fill:#99ff55;fill-opacity:1;stroke:none;stroke-width:5.64824;stroke-dasharray:none;stroke-opacity:1"
       d="m 56.001711,85.587325 c 7.818536,29.428025 8.21267,49.487245 56.315289,61.072515 0,0 -19.422006,6.11579 -39.441418,-6.55139 C 55.497987,129.11287 51.096503,101.37189 56.001711,85.587325 Z"
       id="path51"
       sodipodi:nodetypes="ccsc" />
  </g>
</svg>
