<svg version="1.1" xmlns="http://www.w3.org/2000/svg" xmlns:xlink="http://www.w3.org/1999/xlink" width="88.01428" height="88.32235" viewBox="0,0,88.01428,88.32235"><defs><linearGradient x1="240" y1="138.74286" x2="240" y2="221.25714" gradientUnits="userSpaceOnUse" id="color-1"><stop offset="0" stop-color="#666666"/><stop offset="1" stop-color="#f2fff7"/></linearGradient><linearGradient x1="240" y1="164.21018" x2="240" y2="195.78982" gradientUnits="userSpaceOnUse" id="color-2"><stop offset="0" stop-color="#234158"/><stop offset="1" stop-color="#3e709a"/></linearGradient><linearGradient x1="239.76553" y1="189.8116" x2="239.76553" y2="223.52635" gradientUnits="userSpaceOnUse" id="color-3"><stop offset="0" stop-color="#38668c"/><stop offset="1" stop-color="#66baff"/></linearGradient><linearGradient x1="249.10426" y1="200.02501" x2="279.23837" y2="200.02501" gradientUnits="userSpaceOnUse" id="color-4"><stop offset="0" stop-color="#2c7f4f"/><stop offset="1" stop-color="#3fb36f"/></linearGradient><linearGradient x1="201.24277" y1="200.81" x2="231.37687" y2="200.81" gradientUnits="userSpaceOnUse" id="color-5"><stop offset="0" stop-color="#3fb36f"/><stop offset="1" stop-color="#2c7f4f"/></linearGradient></defs><g transform="translate(-195.99286,-135.99286)"><g data-paper-data="{&quot;isPaintingLayer&quot;:true}" fill-rule="nonzero" stroke-linecap="butt" stroke-linejoin="miter" stroke-miterlimit="10" stroke-dasharray="" stroke-dashoffset="0" style="mix-blend-mode: normal"><path d="M198.74286,180c0,-22.78569 18.47145,-41.25714 41.25714,-41.25714c22.78569,0 41.25714,18.47145 41.25714,41.25714c0,22.78569 -18.47145,41.25714 -41.25714,41.25714c-22.78569,0 -41.25714,-18.47145 -41.25714,-41.25714z" fill="url(#color-1)" stroke="#333333" stroke-width="5.5"/><path d="M217.77507,147.83059l3.31865,-2.13169l11.22692,17.47823l-3.31865,2.13169z" fill="#595959" stroke="none" stroke-width="5.5"/><path d="M201.9003,172.17744l1.08035,-3.79347l19.97894,5.68989l-1.08035,3.79346z" fill="#595959" stroke="none" stroke-width="5.5"/><path d="M224.38505,179.85594c0,-8.64091 7.00485,-15.64576 15.64576,-15.64576c8.64091,0 15.64576,7.00485 15.64576,15.64576c0,8.64091 0.35787,16.43462 -15.64576,15.90871c-17.57186,-0.57744 -15.64576,-7.2678 -15.64576,-15.90871z" fill="url(#color-2)" stroke="#333333" stroke-width="5.5"/><path d="M250.02253,165.04975l-3.31865,-2.13169l11.22693,-17.47824l3.31865,2.13169z" data-paper-data="{&quot;index&quot;:null}" fill="#595959" stroke="none" stroke-width="5.5"/><path d="M257.9419,177.34529l-1.08035,-3.79346l19.97894,-5.68989l1.08035,3.79347z" data-paper-data="{&quot;index&quot;:null}" fill="#595959" stroke="none" stroke-width="5.5"/><path d="M198.74286,180c0,-22.78569 18.47145,-41.25714 41.25714,-41.25714c22.78569,0 41.25714,18.47145 41.25714,41.25714c0,22.78569 -18.47145,41.25714 -41.25714,41.25714c-22.78569,0 -41.25714,-18.47145 -41.25714,-41.25714z" fill="none" stroke="#333333" stroke-width="5.5"/><path d="M223.33091,215.01558v-25.20398h32.86924v25.20398c0,0 12.32518,-1.10354 8.66186,0.61138c-0.13977,0.06543 -0.20753,0.9889 -1.73606,2.07615c-1.4537,1.03402 -5.11798,2.47911 -6.82045,3.21214c-3.08944,1.33022 -8.29511,2.6218 -9.20345,2.85386c-3.14793,0.80423 -6.55843,0.48259 -7.73096,0.48259c-1.05391,0 -5.57259,-0.0916 -8.52465,-1.1352c-1.23816,-0.4377 -3.58309,-0.83951 -5.72228,-1.45171c-1.29399,-0.37032 -4.92044,-1.74386 -6.67281,-3.28803c-1.22514,-1.07958 -0.86213,-2.51141 -1.00161,-2.59972c-1.38143,-0.87461 5.88117,-0.76146 5.88117,-0.76146z" fill="url(#color-3)" stroke="#575757" stroke-width="0"/><path d="M252.77783,189.61089c7.22177,-8.10837 26.46054,-6.35382 26.46054,0.33607c0,7.02596 -3.61433,12.21 -8.08621,17.06196c-4.07819,4.4248 -8.73679,8.839 -14.65931,8.839c-6.23314,0 -10.99462,-18.06373 -3.71502,-26.23703z" data-paper-data="{&quot;index&quot;:null}" fill="url(#color-4)" stroke="#2c7f4f" stroke-width="5.5"/><path d="M223.98829,216.63291c-5.92251,0 -10.84408,-4.67715 -14.92227,-9.10195c-4.47189,-4.85196 -7.82325,-9.77306 -7.82325,-16.79901c0,-6.68989 19.23876,-8.44444 26.46054,-0.33607c7.2796,8.1733 2.51812,26.23703 -3.71502,26.23703z" fill="url(#color-5)" stroke="#2c7f4f" stroke-width="5.5"/></g></g></svg>