<svg version="1.1" xmlns="http://www.w3.org/2000/svg" xmlns:xlink="http://www.w3.org/1999/xlink" width="88.04504" height="88.32236" viewBox="0,0,88.04504,88.32236"><g transform="translate(-195.99286,-135.99286)"><g data-paper-data="{&quot;isPaintingLayer&quot;:true}" fill-rule="nonzero" stroke-linecap="butt" stroke-linejoin="miter" stroke-miterlimit="10" stroke-dasharray="" stroke-dashoffset="0" style="mix-blend-mode: normal"><path d="M198.74287,180c0,-22.78569 18.47145,-41.25714 41.25714,-41.25714c22.78569,0 41.25714,18.47145 41.25714,41.25714c0,22.78569 -18.47145,41.25714 -41.25714,41.25714c-22.78569,0 -41.25714,-18.47145 -41.25714,-41.25714z" fill="#979a98" stroke="#333333" stroke-width="5.5"/><path d="M224.38506,179.85594c0,-8.64091 7.00485,-15.64576 15.64576,-15.64576c8.64091,0 15.64576,7.00485 15.64576,15.64576c0,8.64091 0.35787,16.43462 -15.64576,15.90871c-17.57186,-0.57744 -15.64576,-7.2678 -15.64576,-15.90871z" fill="#5eacec" stroke="#333333" stroke-width="5.5"/><path d="M198.74286,180c0,-22.78569 18.47145,-41.25714 41.25714,-41.25714c22.78569,0 41.25714,18.47145 41.25714,41.25714c0,22.78569 -18.47145,41.25714 -41.25714,41.25714c-22.78569,0 -41.25714,-18.47145 -41.25714,-41.25714z" fill="none" stroke="#333333" stroke-width="5.5"/><path d="M223.41596,215.07372v-25.04639h33.12162v25.04639c0,0 15.46321,-3.45483 11.77176,-1.75063c-0.07558,0.03489 -0.78923,0.99436 -1.87386,2.04303c-0.93663,0.90557 -2.20517,1.23047 -2.91892,1.73114c-1.46486,1.02756 -5.15728,3.11079 -6.87282,3.83924c-3.11316,1.3219 -8.3588,2.6054 -9.27412,2.83601c-3.1721,0.7992 -6.60879,0.47957 -7.79032,0.47957c-1.062,0 -5.61538,0.12335 -8.5901,-0.91372c-1.24767,-0.43496 -3.6106,-1.04864 -5.76622,-1.65701c-0.81147,-0.22902 -4.89064,-2.07597 -8.28163,-4.13209c-2.05786,-1.24778 -3.86229,-2.84344 -4.52919,-3.42297c-1.23455,-1.07283 5.21803,1.79188 5.07748,1.70413c-1.39204,-0.86914 5.92633,-0.7567 5.92633,-0.7567z" fill="#5eacec" stroke="#575757" stroke-width="0"/><path d="M214.49583,212.35264c-3.55947,-2.80736 -6.99556,-5.78759 -9.54834,-9.85164c-2.22197,-3.53741 -3.84214,-7.24314 -4.80554,-10.98792c-0.79695,-3.09779 -1.64403,-7.01711 -0.97152,-10.63466c6.59193,-3.94105 24.31292,-5.53625 30.81193,5.21233c1.90839,3.15625 3.72458,11.70697 2.16981,18.75546c-1.66742,7.55917 -6.82323,13.52011 -7.94791,13.23041c-2.38817,-0.61515 -9.3758,-5.46165 -9.70842,-5.72399z" fill="#3fb36f" stroke="#1a4c2f" stroke-width="5.5"/><g fill="#595959" stroke="none" stroke-width="5.5"><path d="M223.71042,144.48424l3.59264,-1.62803l8.57431,18.92125l-3.59264,1.62803z"/><path d="M204.49235,163.29707l1.85382,-3.48151l18.33595,9.7635l-1.85382,3.4815z"/></g><g data-paper-data="{&quot;index&quot;:null}" fill="#595959" stroke="none" stroke-width="5.5"><path d="M247.8173,163.44373l-3.59264,-1.62803l8.57431,-18.92124l3.59264,1.62803z"/><path d="M257.27372,173.0988l-1.85382,-3.4815l18.33595,-9.7635l1.85382,3.48151z"/></g><path d="M256.25407,217.68342c-1.12468,0.28969 -6.2805,-5.67124 -7.94791,-13.23041c-1.55477,-7.04849 0.26143,-15.59921 2.16981,-18.75546c6.49901,-10.74858 24.22,-9.15338 30.81193,-5.21233c0.67251,3.61755 -0.17458,7.53687 -0.97153,10.63466c-0.9634,3.74478 -2.58357,7.45051 -4.80554,10.98792c-2.55278,4.06405 -5.98886,7.04429 -9.54834,9.85164c-0.33263,0.26234 -7.32025,5.10884 -9.70842,5.72399z" data-paper-data="{&quot;index&quot;:null}" fill="#3fb36f" stroke="#1a4c2f" stroke-width="5.5"/></g></g></svg>